<svg xmlns="http://www.w3.org/2000/svg" version="1.1" xmlns:xlink="http://www.w3.org/1999/xlink" xmlns:svgjs="http://svgjs.dev/svgjs" width="1000" height="247" viewBox="0 0 1000 247"><g transform="matrix(1,0,0,1,-0.6060605879141576,0.01621775456361263)"><svg viewBox="0 0 396 98" data-background-color="#ffffff" preserveAspectRatio="xMidYMid meet" height="247" width="1000" xmlns="http://www.w3.org/2000/svg" xmlns:xlink="http://www.w3.org/1999/xlink"><g id="tight-bounds" transform="matrix(1,0,0,1,0.24000000718604042,-0.006434574685158623)"><svg viewBox="0 0 395.52 98.01286914937029" height="98.01286914937029" width="395.52"><g><svg viewBox="0 0 575.4628604831028 142.6040808172853" height="98.01286914937029" width="395.52"><g><rect width="5.9124575133355615" height="142.6040808172853" x="158.55276550030246" y="0" fill="#e30b5c" opacity="1" stroke-width="0" stroke="transparent" fill-opacity="1" class="rect-o-0" data-fill-palette-color="primary" rx="1%" id="o-0" data-palette-color="#e30b5c"></rect></g><g transform="matrix(1,0,0,1,179.94286048310283,0.3547365194459786)"><svg viewBox="0 0 395.52 141.89460777839335" height="141.89460777839335" width="395.52"><g><svg viewBox="0 0 395.52 141.89460777839335" height="141.89460777839335" width="395.52"><g><svg viewBox="0 0 395.52 141.89460777839335" height="141.89460777839335" width="395.52"><g transform="matrix(1,0,0,1,0,0)"><svg width="395.52" viewBox="0.7799999713897705 -35.54999923706055 221.8000030517578 75.56000518798828" height="141.89460777839335" data-palette-color="#e30b5c"><svg></svg><svg></svg><g class="undefined-text-0" data-fill-palette-color="primary" id="text-0"><path xmlns="http://www.w3.org/2000/svg" d="M15.65-33.94l-12.57 33.94h-2.3l13.36-35.55h1.73zM27.49 0l-12.6-33.94-0.22-1.61h1.71l13.38 35.55zM24.51-12.23v1.93h-18.36v-1.93zM47.29-17.33h-10.52l-0.05-1.91h8.84c2.927 0 5.163-0.597 6.71-1.79 1.547-1.2 2.32-3.003 2.32-5.41v0c0-2.407-0.79-4.207-2.37-5.4-1.58-1.187-3.93-1.78-7.05-1.78v0h-7.77v33.62h-2.17v-35.55h9.94c3.593 0 6.427 0.737 8.5 2.21 2.08 1.473 3.12 3.807 3.12 7v0c0 1.46-0.303 2.777-0.91 3.95-0.6 1.173-1.457 2.127-2.57 2.86-1.113 0.733-2.46 1.19-4.04 1.37v0zM47.05 0h-10.8l0.98-1.93h9.82c2.8 0 5-0.7 6.6-2.1 1.6-1.4 2.4-3.343 2.4-5.83v0c0-1.353-0.317-2.597-0.95-3.73-0.633-1.127-1.6-2.033-2.9-2.72-1.307-0.68-2.943-1.02-4.91-1.02v0h-6.01l0.05-1.91h8.62l0.32 0.69c1.547 0.16 2.917 0.647 4.11 1.46 1.2 0.813 2.14 1.847 2.82 3.1 0.687 1.253 1.03 2.613 1.03 4.08v0c0 3.207-1.033 5.66-3.1 7.36-2.067 1.7-4.76 2.55-8.08 2.55zM75.42 0h-8.35l0.04-1.93h8.31c2.553 0 4.793-0.593 6.72-1.78 1.927-1.187 3.437-2.827 4.53-4.92 1.093-2.093 1.64-4.507 1.64-7.24v0-3.88c0-2.753-0.547-5.167-1.64-7.24-1.093-2.073-2.6-3.697-4.52-4.87-1.92-1.173-4.133-1.76-6.64-1.76v0h-8.59v-1.93h8.59c2.88 0 5.443 0.663 7.69 1.99 2.247 1.327 4.017 3.18 5.31 5.56 1.293 2.373 1.94 5.147 1.94 8.32v0 3.81c0 3.173-0.647 5.95-1.94 8.33-1.293 2.373-3.067 4.223-5.32 5.55-2.253 1.327-4.843 1.99-7.77 1.99zM67.8-35.55v35.55h-2.17v-35.55zM120.41-35.55h2.17v24.1c0 2.653-0.543 4.867-1.63 6.64-1.093 1.773-2.57 3.1-4.43 3.98-1.867 0.88-3.957 1.32-6.27 1.32v0c-2.34 0-4.437-0.44-6.29-1.32-1.86-0.88-3.33-2.207-4.41-3.98-1.087-1.773-1.63-3.987-1.63-6.64v0-24.1h2.15v24.1c0 2.167 0.443 3.993 1.33 5.48 0.887 1.487 2.097 2.613 3.63 3.38 1.527 0.767 3.267 1.15 5.22 1.15v0c1.953 0 3.697-0.383 5.23-1.15 1.527-0.767 2.73-1.893 3.61-3.38 0.88-1.487 1.32-3.313 1.32-5.48v0zM151.56-1.93v1.93h-18.77v-1.93zM133.67-35.55v35.55h-2.2v-35.55zM177.64-1.93v1.93h-18.78v-1.93zM159.74-35.55v35.55h-2.2v-35.55zM195.04-33.94l-12.57 33.94h-2.29l13.35-35.55h1.73zM206.88 0l-12.59-33.94-0.22-1.61h1.71l13.38 35.55zM203.91-12.23v1.93h-18.36v-1.93z" fill="#e30b5c" fill-rule="nonzero" stroke="none" stroke-width="1" stroke-linecap="butt" stroke-linejoin="miter" stroke-miterlimit="10" stroke-dasharray="" stroke-dashoffset="0" font-family="none" font-weight="none" font-size="none" text-anchor="none" style="mix-blend-mode: normal" data-fill-palette-color="primary" opacity="1"></path><path xmlns="http://www.w3.org/2000/svg" d="M25.39 30.88v0c0-1.4-0.32-2.6-0.96-3.6-0.647-1.007-1.727-1.893-3.24-2.66-1.513-0.773-3.557-1.51-6.13-2.21v0c-1.787-0.507-3.4-1.05-4.84-1.63-1.44-0.573-2.67-1.24-3.69-2-1.02-0.76-1.797-1.657-2.33-2.69-0.54-1.033-0.81-2.257-0.81-3.67v0c0-1.82 0.513-3.4 1.54-4.74 1.027-1.333 2.437-2.367 4.23-3.1 1.787-0.733 3.82-1.1 6.1-1.1v0c2.393 0 4.49 0.457 6.29 1.37 1.793 0.913 3.197 2.163 4.21 3.75 1.007 1.587 1.51 3.397 1.51 5.43v0h-2.17c0-1.64-0.4-3.113-1.2-4.42-0.793-1.3-1.923-2.323-3.39-3.07-1.467-0.753-3.217-1.13-5.25-1.13v0c-2.1 0-3.87 0.323-5.31 0.97-1.44 0.64-2.53 1.487-3.27 2.54-0.74 1.047-1.11 2.197-1.11 3.45v0c0 1.187 0.3 2.26 0.9 3.22 0.6 0.96 1.637 1.837 3.11 2.63 1.473 0.787 3.52 1.523 6.14 2.21v0c2.427 0.647 4.527 1.407 6.3 2.28 1.773 0.873 3.147 1.957 4.12 3.25 0.967 1.293 1.45 2.917 1.45 4.87v0c0 1.933-0.537 3.59-1.61 4.97-1.073 1.373-2.527 2.417-4.36 3.13-1.833 0.72-3.89 1.08-6.17 1.08v0c-1.547 0-3.1-0.193-4.66-0.58-1.56-0.38-2.983-0.983-4.27-1.81-1.287-0.833-2.32-1.927-3.1-3.28-0.78-1.347-1.17-2.99-1.17-4.93v0h2.17c0 1.647 0.333 3.023 1 4.13 0.667 1.107 1.547 1.993 2.64 2.66 1.087 0.667 2.277 1.147 3.57 1.44 1.293 0.293 2.567 0.44 3.82 0.44v0c1.973 0 3.703-0.307 5.19-0.92 1.493-0.607 2.657-1.447 3.49-2.52 0.84-1.073 1.26-2.327 1.26-3.76zM58.52 20.26v1.93h-22.75v-1.93zM36.45 3.97v35.55h-2.17v-35.55zM60.13 3.97v35.55h-2.17v-35.55zM80.93 5.58l-12.57 33.94h-2.3l13.36-35.55h1.73zM92.77 39.52l-12.59-33.94-0.22-1.61h1.71l13.37 35.55zM89.79 27.29v1.93h-18.35v-1.93zM124.76 20.26v1.93h-22.76v-1.93zM102.69 3.97v35.55h-2.18v-35.55zM126.37 3.97v35.55h-2.18v-35.55zM158.76 37.59v1.93h-24.68v-1.93zM157.98 5.51l-23.24 34.01h-1.41v-1.66l23.21-33.89h1.44zM157.01 3.97v1.93h-22.88v-1.93zM176.95 5.58l-12.57 33.94h-2.3l13.36-35.55h1.73zM188.79 39.52l-12.59-33.94-0.22-1.61h1.71l13.37 35.55zM185.82 27.29v1.93h-18.36v-1.93zM222.58 3.97v35.55h-2.17l-21.68-31.86v31.86h-2.2v-35.55h2.2l21.7 31.84v-31.84z" fill="#e30b5c" fill-rule="nonzero" stroke="none" stroke-width="1" stroke-linecap="butt" stroke-linejoin="miter" stroke-miterlimit="10" stroke-dasharray="" stroke-dashoffset="0" font-family="none" font-weight="none" font-size="none" text-anchor="none" style="mix-blend-mode: normal" data-fill-palette-color="primary" opacity="1"></path></g></svg></g></svg></g></svg></g></svg></g><g transform="matrix(1,0,0,1,0,0.3547365194459786)"><svg viewBox="0 0 143.07512803083765 141.89460777839335" height="141.89460777839335" width="143.07512803083765"><g><svg xmlns="http://www.w3.org/2000/svg" xmlns:xlink="http://www.w3.org/1999/xlink" version="1.1" x="0" y="0" viewBox="0.7534958124160767 0.8368608355522156 46.648033142089844 46.26313781738281" enable-background="new 0 0 48 48" xml:space="preserve" height="141.89460777839335" width="143.07512803083765" class="icon-icon-0" data-fill-palette-color="accent" id="icon-0"><g fill="#e30b5c" data-fill-palette-color="accent"><g fill="#e30b5c" data-fill-palette-color="accent"><g fill="#e30b5c" data-fill-palette-color="accent"><path fill="#e30b5c" d="M0.9 2.4C1.3 11.2 1.3 20.1 1.3 29c0 2.1-0.8 11.5 2.9 11.7 8.7 0.6 17.6 0.1 26.3 0.1 2.4 0 14.7 1.5 15.6-1.8 2.1-7.3 1.1-16.1 0.8-23.6-0.2-4.2-0.4-8.5-0.6-12.7 0-0.9-0.4-1.1-1.2-1.3-3.4-1-8.2-0.1-11.7-0.2-4.5-0.1-9-0.1-13.5-0.2C15.4 1.1 10.9 1 6.4 1c-1.7 0-4.2-0.7-5.5 0.8C0.4 2.3 1.3 3.2 1.8 2.6c1.1-1.2 7-0.4 8.5-0.3 3.2 0 6.4 0.1 9.6 0.1 6.4 0.1 12.9 0.2 19.3 0.3 1.3 0 2.6 0 3.9 0.1 2.8 0 2.2 3.9 2.3 5.5 0.2 3.1 0.3 6.1 0.4 9.2 0.3 6.2 0.3 12.5-0.3 18.7-0.5 5.4-15.4 3.6-18.8 3.6-6.5 0-13 0-19.4 0-5.1 0-4.4-4.7-4.6-8.6-0.1-3.2 0-6.4 0-9.6 0-6.3-0.2-12.7-0.4-19C2.2 1.5 0.9 1.5 0.9 2.4L0.9 2.4z" data-fill-palette-color="accent"></path></g></g><g fill="#e30b5c" data-fill-palette-color="accent"><g fill="#e30b5c" data-fill-palette-color="accent"><path fill="#e30b5c" d="M17.2 10.2c-1.6 1.4-3.8 2.1-5.5 3.3-1 0.7-2.9 2.1-3.3 3.4-0.2 0.9 0.9 1.4 1.5 1.8 2.4 1.5 4.5 3.3 6.4 5.3 0.6 0.6 1.4-0.3 0.9-0.9-1.2-1.2-2.4-2.4-3.7-3.5-0.5-0.4-3.8-2.4-3.3-3.1 2.2-2.6 5.5-3.4 8-5.6C18.7 10.5 17.8 9.6 17.2 10.2L17.2 10.2z" data-fill-palette-color="accent"></path></g></g><g fill="#e30b5c" data-fill-palette-color="accent"><g fill="#e30b5c" data-fill-palette-color="accent"><path fill="#e30b5c" d="M27.2 6.7c-2.7 7.2-5.2 14.5-7.6 21.9-0.3 0.8 1 1.1 1.2 0.3 2.4-7.3 4.9-14.6 7.6-21.9C28.7 6.3 27.5 5.9 27.2 6.7L27.2 6.7z" data-fill-palette-color="accent"></path></g></g><g fill="#e30b5c" data-fill-palette-color="accent"><g fill="#e30b5c" data-fill-palette-color="accent"><path fill="#e30b5c" d="M29.3 11.6c1.5 1.1 2.9 2.3 4.4 3.4 0.9 0.7 1.8 1.4 2.6 2.1 1.3 1 0.7 0.9-0.4 1.7-2.4 1.7-4.3 3.9-6 6.3-0.5 0.7 0.6 1.3 1.1 0.6 1.4-2 3.1-3.8 5-5.4 0.4-0.3 2.7-1.5 2.7-2.4 0-1.2-1.5-1.9-2.3-2.5-2.1-1.6-4.1-3.2-6.2-4.8C29.5 10.2 28.6 11.1 29.3 11.6L29.3 11.6z" data-fill-palette-color="accent"></path></g></g><g fill="#e30b5c" data-fill-palette-color="accent"><g fill="#e30b5c" data-fill-palette-color="accent"><path fill="#e30b5c" d="M2.3 31.9c14.8 0.3 29.5 0.2 44.3-0.3 0.8 0 0.8-1.3 0-1.3-14.8 0.6-29.5 0.7-44.3 0.3C1.5 30.6 1.5 31.9 2.3 31.9L2.3 31.9z" data-fill-palette-color="accent"></path></g></g><g fill="#e30b5c" data-fill-palette-color="accent"><g fill="#e30b5c" data-fill-palette-color="accent"><path fill="#e30b5c" d="M21.1 36.6c1.1 0 2.2 0 3.3 0 0.8 0 0.8-1.3 0-1.3-1.1 0-2.2 0-3.3 0C20.3 35.4 20.3 36.6 21.1 36.6L21.1 36.6z" data-fill-palette-color="accent"></path></g></g><g fill="#e30b5c" data-fill-palette-color="accent"><g fill="#e30b5c" data-fill-palette-color="accent"><path fill="#e30b5c" d="M23.8 40.3c-0.3 1.8-0.4 3.6-0.2 5.5 0.1 0.8 1.3 0.8 1.3 0-0.2-1.7-0.2-3.4 0.1-5.1C25.2 39.8 24 39.5 23.8 40.3L23.8 40.3z" data-fill-palette-color="accent"></path></g></g><g fill="#e30b5c" data-fill-palette-color="accent"><g fill="#e30b5c" data-fill-palette-color="accent"><path fill="#e30b5c" d="M15.1 47.1c6.9 0 13.8 0 20.6 0 0.8 0 0.8-1.3 0-1.3-6.9 0-13.8 0-20.6 0C14.3 45.8 14.3 47.1 15.1 47.1L15.1 47.1z" data-fill-palette-color="accent"></path></g></g></g></svg></g></svg></g></svg></g><defs></defs></svg><rect width="395.52" height="98.01286914937029" fill="none" stroke="none" visibility="hidden"></rect></g></svg></g></svg>